# xmcd
#
# Track frame offsets: 
#        150
#        13627
#        26756
#        39145
#        52118
#        66004
#        80080
#        91896
#        105211
#        120014
#        131789
#        143521
#        155518
#        168401
#        180087
#        192727
#        206061
#        218470
#        232045
#        247301
#
# Disc length: 3476 seconds
#
# Revision: 5
# Processed by: cddbd v1.5.2PL0 Copyright (c) Steve Scherf et al.
# Submitted via: ExactAudioCopy v1.3
#
DISCID=0a0d9214
DTITLE=Various Artist - Country Roots
DYEAR=2001
DGENRE=Country
TTITLE0=The Carter Family - My Dixie Darling
TTITLE1=Jimmie Rodgers - In The Jailhouse Now
TTITLE2=Hank Williams - Lovesick Blues
TTITLE3=Roy Acuff - Wabash Cannonball
TTITLE4=Eddy Arnold - The Cattle Call
TTITLE5=Patsy Montana - I Want To Be A Cowboy's Sweetheart
TTITLE6=Ernest Tubb - Walking The Floor Over You
TTITLE7=Tex Ritter - Jealous Heart
TTITLE8=Vernon Dalhart - The Prisoner's Song
TTITLE9=Gene Autry - Back In The Saddle Again
TTITLE10=Bob Wills and His Texas Playboys - New San Antonio Rose
TTITLE11=Hank Williams - Long Gone Lonesome Blues
TTITLE12=Jimmie Davis - You Are My Sunshine
TTITLE13=Roy Rogers - The Yellow Rose Of Texas
TTITLE14=Jack Guthrie - Oklahoma Hills
TTITLE15=Tex Williams - Smoke! Smoke! Smoke! (That Cigarette)
TTITLE16=Leon Payne - I Love You Because
TTITLE17=Merle Travis - Divorce Me C O D
TTITLE18=Jimmie Rodgers - Blue Yodel (BT For Texas)
TTITLE19=Bob Wills and His Texas Playboys - Stay A Little Longer
EXTD=YEAR: 2001
EXTT0=
EXTT1=
EXTT2=
EXTT3=
EXTT4=
EXTT5=
EXTT6=
EXTT7=
EXTT8=
EXTT9=
EXTT10=
EXTT11=
EXTT12=
EXTT13=
EXTT14=
EXTT15=
EXTT16=
EXTT17=
EXTT18=
EXTT19=
PLAYORDER=
